# xmcd
#
# Track frame offsets:
#   150
#   11678
#   24274
#   36809
#   49233
#   62579
#   73986
#   85677
#   107565
#   121080
#   127704
#   140310
#   149736
#   168413
#   183967
#   196293
#   207494
#   220239
#   231779
#   243227
#   256156
#   267563
#
# Disc length: 4026 seconds
#
# Revision: 0
# Processed by: cddbd v1.5.2PL0 Copyright (c) Steve Scherf et al.
# Submitted via: uFREEDB ActiveX Control 1.5
#
DISCID=3a0fb816
DTITLE=Ray Conniff - Ray Connif
DYEAR=1900
DGENRE=Soundtrack
TTITLE0=01-Love Theme From The Godfather
TTITLE1=02-Days Of Wine And Roses
TTITLE2=03-Volare
TTITLE3=04-Try To Remember
TTITLE4=05-Amigo
TTITLE5=Memories Are Made Of This
TTITLE6=07-Besame Mucho
TTITLE7=08-Autumn Leaves
TTITLE8=The Most Beautifull Girl in the Word
TTITLE9=10-Strangers In Paradise
TTITLE10=Chanson D' amour
TTITLE11=12-Edelweiss
TTITLE12=13-I Will Always <love You
TTITLE13=14-Love Theme From Romeu and Julieta
TTITLE14=15-Moon River
TTITLE15=16-Perfidia
TTITLE16=17-The Poor People Of Paris
TTITLE17=18-Ring Christmas Bells
TTITLE18=19-Somewhere My Love
TTITLE19=20-Aquarela Brasileira
TTITLE20=21-Memories Are Made Of This
TTITLE21=22-Christmas Medley
EXTD=
EXTT0=
EXTT1=
EXTT2=
EXTT3=
EXTT4=
EXTT5=
EXTT6=
EXTT7=
EXTT8=
EXTT9=
EXTT10=
EXTT11=
EXTT12=
EXTT13=
EXTT14=
EXTT15=
EXTT16=
EXTT17=
EXTT18=
EXTT19=
EXTT20=
EXTT21=
PLAYORDER=
